<svg width="244" height="453" viewBox="0 0 244 453" fill="none" preserveAspectRatio="none" xmlns="http://www.w3.org/2000/svg">
<path d="M-69.7058 96.8937C68.7021 124.4 153.967 163.768 199.974 206.424C222.983 227.758 236.188 249.927 241.289 271.857C246.391 293.789 243.379 315.441 234.026 335.718C215.327 376.253 171.29 411.293 115.999 432.258C60.6957 453.228 -5.94023 460.146 -69.9235 444.369L-70.3034 444.275V96.7745L-69.7058 96.8937Z" fill="#35241F"/>
<path d="M-90.8337 1.38486C28.9873 -5.86943 99.4745 16.5154 140.025 41.961C160.299 54.6832 173.082 68.1665 180.8 79.0802C184.658 84.536 187.252 89.3507 188.883 93.1085C189.698 94.9871 190.274 96.6058 190.647 97.9103C191.017 99.2039 191.197 100.22 191.197 100.884C191.197 103.328 190.681 107.342 187.859 111.458C185.034 115.578 179.931 119.752 170.846 122.57C152.707 128.197 118.593 128.457 54.5813 112.037C-24.2861 91.8067 -61.872 70.0254 -79.1833 50.38C-87.8502 40.5445 -91.4347 31.2458 -92.5671 22.962C-93.6978 14.6899 -92.3784 7.45887 -91.2946 1.79014L-91.2214 1.4083L-90.8337 1.38486Z" fill="#35241F"/>
</svg>
