<svg width="560" height="495" viewBox="0 0 560 495" fill="none" preserveAspectRatio="none" xmlns="http://www.w3.org/2000/svg">
<path d="M564 489.584C516.239 496.745 446.493 500.499 405.273 476.497C360.686 450.532 343.281 420.194 367.059 377.25C376.032 361.044 415.749 338.562 425.439 331.562C329.699 325.401 209.865 306.826 132.319 247.184C54.7739 187.543 0 96.9652 0 -7H564V489.584Z" fill="#35241F"/>
<path d="M96.0786 362.203C104.568 359.144 116.997 359.553 132.319 364.188C183.804 377.62 239.037 367.12 288.18 380.928C313.668 388.09 321.165 418.69 317.417 438.868C298.357 541.481 144.498 462.448 101.405 414.149C90.7295 402.184 70.2505 371.51 96.0786 362.203Z" fill="#35241F"/>
</svg>
